<?xml version="1.0" encoding="UTF-8"?>
<svg id="StubHub" xmlns="http://www.w3.org/2000/svg" version="1.1" viewBox="0 0 600 275">
  <defs>
    <style>
      .cls-1 {
        fill: #5e29ba;
      }

      .cls-1, .cls-2 {
        fill-rule: evenodd;
        stroke-width: 0px;
      }

      .cls-2 {
        fill: #fff;
      }
    </style>
  </defs>
  <g id="StubHub-2" data-name="StubHub">
    <path class="cls-1" d="M7.7,41.8c-3.2.2-5.5,3-5.2,6.2l17.9,171.1c.3,3.2-.2,8.3-1.1,11.4l-8.4,27.2c-1,3.1.7,4.6,3.7,3.3l45-18.7c3-1.2,8-2.1,11.2-1.9l496.7,32c3.2.2,6.1-2.2,6.4-5.5L597.5,7.9c.3-3.2-2.1-5.6-5.3-5.4L7.7,41.8Z"/>
    <path class="cls-2" d="M149.7,157.8c0,7.5-3,13.6-9,18-5.9,4.4-14.2,6.6-24.8,6.6s-18.7-2.2-24.5-6.6c-6-4.4-9-10.5-9-18v-1.3h12.8v1.3c0,3.7,1.7,6.5,5.2,8.6,3.6,2.2,8.9,3.3,15.6,3.3s12-1.1,15.8-3.3c3.6-2.1,5.4-5,5.4-8.6v-1.8c0-4.1-2.5-6.9-7.5-8.6l-29.5-9.9c-4.9-1.5-8.7-3.9-11.3-7-2.6-3.1-4-6.9-4-11.2v-2c0-15.3,10.1-23.2,30.1-23.4h1.3c20.3,0,31,7.4,31.6,22.1v1.1s-12.7,0-12.7,0v-1c-.8-6.4-6.9-9.6-18.9-9.6h-1.1c-11.9.2-17.7,3.7-17.7,10.8v2c0,1.1.5,2.2,1.6,3.3,1.2,1.2,2.8,2.1,4.7,2.8l29.9,9.9c4.9,1.6,8.8,4.2,11.7,7.7,2.9,3.5,4.4,7.9,4.4,12.9v1.8ZM185.2,132.2h-13.3v14.9s0,.2,0,.2v7c0,5.1,1.4,9.1,4.1,12.1,2.1,2.3,4.8,3.7,8.2,4.2h.9v12.3h-1.2c-7-.8-12.7-3.4-17-7.8-5-5.2-7.6-12.2-7.6-20.7v-58.3h12.4v23.5h13.3v12.7ZM244.6,153.5c0,10.4-1.9,18-5.7,22.4-3.6,4.3-9.6,6.6-17.6,6.8h0s-1.1,0-1.1,0h-1.8c-8.1-.2-14-2.5-17.7-6.9-3.8-4.5-5.7-12-5.7-22.4v-33.9h12.2v33.9c0,6.4.9,11,2.8,13.5,1.8,2.4,5,3.6,9.5,3.7h.6c4.5,0,7.7-1.2,9.5-3.7,1.9-2.5,2.8-7.1,2.8-13.5v-33.9h12.2v33.9ZM282.5,130c-5.1,0-9.1,1.3-11.7,4-2.6,2.6-4,7.1-4,13.2v7c0,5.1,1.4,9.1,4.1,12.1,2.7,3,6.6,4.4,11.6,4.4s8.8-1.5,11.6-4.4c2.8-3,4.2-7,4.2-12.1v-7c0-6.1-1.3-10.6-4-13.2-2.7-2.6-6.6-4-11.8-4ZM266.8,96.1v27.9c3.9-4,9.1-6,15.7-6,18.8,0,28.3,9.8,28.3,29.2v7c0,8.5-2.6,15.5-7.6,20.7-5.1,5.2-12,7.9-20.7,7.9s-15.5-2.7-20.5-7.9c-5-5.2-7.6-12.2-7.6-20.7v-58.1h12.4ZM385.6,182.1h-12.9v-37.7h-39.3v37.7h-12.9v-86.2h12.9v36h39.3v-36h12.9v86.2ZM445,153.5c0,10.4-1.9,18-5.7,22.4-3.6,4.3-9.6,6.6-17.6,6.8h0s-1.1,0-1.1,0h-1.8c-8.1-.2-14-2.5-17.7-6.9-3.8-4.5-5.7-12-5.7-22.4v-33.9h12.2v33.9c0,6.5.9,11,2.8,13.5,1.8,2.4,5,3.6,9.5,3.7h.6c4.5,0,7.7-1.2,9.5-3.7,1.9-2.5,2.8-7.1,2.8-13.5v-33.9h12.2v33.9ZM482.9,130c-5.1,0-9.1,1.3-11.7,4-2.6,2.6-4,7.1-4,13.2v7c0,5.1,1.4,9.1,4.1,12.1,2.7,3,6.6,4.4,11.6,4.4s8.8-1.5,11.6-4.4c2.8-3,4.2-7.1,4.2-12.1v-7c0-6.1-1.3-10.6-4-13.2-2.7-2.6-6.6-4-11.8-4ZM467.2,96.1v27.9c3.9-4,9.1-6,15.7-6,18.8,0,28.3,9.8,28.3,29.2v7c0,8.5-2.6,15.5-7.6,20.7-5.1,5.2-12,7.9-20.7,7.9s-15.5-2.7-20.5-7.9c-5-5.2-7.6-12.2-7.6-20.7v-58.1h12.4Z"/>
  </g>
</svg>